mtllib phone.mtl
o Cube
v 1.376545 2.820285 0.170817
v 1.043768 3.153062 0.170817
v 1.331961 2.986673 0.170817
v 1.210156 3.108479 0.170817
v 1.043768 3.153062 -0.252180
v 1.376545 2.820285 -0.252180
v 1.210156 3.108479 -0.252180
v 1.331961 2.986673 -0.252180
v -1.042351 3.153062 0.170817
v -1.384486 2.810927 0.170817
v -1.213419 3.107225 0.170817
v -1.338649 2.981995 0.170817
v -1.384486 2.810927 -0.252180
v -1.042351 3.153062 -0.252180
v -1.338649 2.981995 -0.252180
v -1.213419 3.107225 -0.252180
v -1.384486 -2.646701 0.170817
v -1.033901 -2.997287 0.170817
v -1.337517 -2.821994 0.170817
v -1.209194 -2.950317 0.170817
v -1.033901 -2.997287 -0.252180
v -1.384486 -2.646701 -0.252180
v -1.209194 -2.950317 -0.252180
v -1.337517 -2.821993 -0.252180
v 1.032579 -2.997287 0.170817
v 1.376545 -2.653321 0.170817
v 1.204562 -2.951205 0.170817
v 1.330462 -2.825304 0.170817
v 1.376545 -2.653321 -0.252180
v 1.032579 -2.997287 -0.252180
v 1.330462 -2.825304 -0.252180
v 1.204562 -2.951205 -0.252180
vt 0.9377 0.3874
vt 0.9377 0.0482
vt 1.0000 0.0482
vt 1.0000 0.3874
vt 0.9377 0.7784
vt 0.9377 0.4424
vt 1.0000 0.4424
vt 1.0000 0.7784
vt 0.0506 1.0000
vt 0.0253 0.9925
vt 0.0068 0.9720
vt 0.0000 0.9441
vt 0.0000 0.0541
vt 0.0066 0.0271
vt 0.0245 0.0072
vt 0.0490 0.0000
vt 0.3562 0.0000
vt 0.3814 0.0075
vt 0.3998 0.0278
vt 0.4066 0.0556
vt 0.4066 0.9430
vt 0.3997 0.9715
vt 0.3808 0.9924
vt 0.3549 1.0000
vt 1.0000 0.4144
vt 0.9377 0.4144
vt 0.8754 0.9853
vt 0.8131 0.9853
vt 0.8131 0.9655
vt 0.8754 0.9655
vt 0.8131 0.9384
vt 0.8754 0.9384
vt 0.9377 0.0204
vt 1.0000 0.0204
vt 0.9377 0.0000
vt 1.0000 0.0000
vt 0.9377 0.9437
vt 0.8754 0.9437
vt 0.8754 0.9159
vt 0.9377 0.9159
vt 0.9377 0.0285
vt 0.8754 0.0285
vt 1.0000 0.8069
vt 0.9377 0.8069
vt 1.0000 0.8277
vt 0.9377 0.8277
vt 0.8754 0.0000
vt 0.9377 0.0000
vt 0.7615 0.0000
vt 0.7873 0.0076
vt 0.8062 0.0285
vt 0.8131 0.0570
vt 0.8131 0.9444
vt 0.8064 0.9722
vt 0.7879 0.9925
vt 0.7628 1.0000
vt 0.4556 1.0000
vt 0.4311 0.9928
vt 0.4131 0.9729
vt 0.4066 0.9459
vt 0.4066 0.0559
vt 0.4134 0.0280
vt 0.4319 0.0075
vt 0.4572 0.0000
vt 0.9377 0.4144
vt 1.0000 0.4144
vt 0.8131 0.0000
vt 0.8754 0.0000
vt 0.8754 0.0205
vt 0.8131 0.0205
vt 0.8754 0.0484
vt 0.8131 0.0484
vn 0.0000 1.0000 0.0000
vn 0.0000 -1.0000 0.0000
vn -0.0000 0.0000 1.0000
vn 0.2588 0.9659 -0.0000
vn 0.7071 0.7071 -0.0000
vn 0.9659 0.2588 0.0000
vn -0.2588 0.9659 0.0000
vn -0.7071 0.7071 0.0000
vn -0.9659 0.2588 0.0000
vn -1.0000 0.0000 0.0000
vn -0.2588 -0.9659 0.0000
vn -0.7071 -0.7071 0.0000
vn -0.9659 -0.2588 0.0000
vn -0.0000 0.0000 -1.0000
vn 0.2588 -0.9659 0.0000
vn 0.7071 -0.7071 0.0000
vn 0.9659 -0.2588 0.0000
vn 1.0000 0.0000 0.0000
usemtl Material
s off
f 5/1/1 14/2/1 9/3/1 2/4/1
f 21/5/2 30/6/2 25/7/2 18/8/2
f 25/9/3 27/10/3 28/11/3 26/12/3 1/13/3 3/14/3 4/15/3 2/16/3 9/17/3 11/18/3 12/19/3 10/20/3 17/21/3 19/22/3 20/23/3 18/24/3
f 5/1/4 2/4/4 4/25/4 7/26/4
f 7/27/5 4/28/5 3/29/5 8/30/5
f 8/30/6 3/29/6 1/31/6 6/32/6
f 9/3/7 14/2/7 16/33/7 11/34/7
f 11/34/8 16/33/8 15/35/8 12/36/8
f 12/37/9 15/38/9 13/39/9 10/40/9
f 17/41/10 10/40/10 13/39/10 22/42/10
f 21/5/11 18/8/11 20/43/11 23/44/11
f 23/44/12 20/43/12 19/45/12 24/46/12
f 24/47/13 19/48/13 17/41/13 22/42/13
f 21/49/14 23/50/14 24/51/14 22/52/14 13/53/14 15/54/14 16/55/14 14/56/14 5/57/14 7/58/14 8/59/14 6/60/14 29/61/14 31/62/14 32/63/14 30/64/14
f 25/7/15 30/6/15 32/65/15 27/66/15
f 27/67/16 32/68/16 31/69/16 28/70/16
f 28/70/17 31/69/17 29/71/17 26/72/17
f 29/71/18 6/32/18 1/31/18 26/72/18
